<?xml version="1.0" encoding="UTF-8" standalone="no"?>
<!-- Generator: Adobe Illustrator 17.0.0, SVG Export Plug-In . SVG Version: 6.00 Build 0)  -->

<svg
   version="1.1"
   x="0px"
   y="0px"
   width="170.47847"
   height="171.53004"
   viewBox="0 0 170.47847 171.53005"
   enable-background="new 0 0 457.751 171.53"
   xml:space="preserve"
   id="svg10"
   sodipodi:docname="coquiz-logo.svg"
   inkscape:version="1.4 (86a8ad7, 2024-10-11)"
   xmlns:inkscape="http://www.inkscape.org/namespaces/inkscape"
   xmlns:sodipodi="http://sodipodi.sourceforge.net/DTD/sodipodi-0.dtd"
   xmlns="http://www.w3.org/2000/svg"
   xmlns:svg="http://www.w3.org/2000/svg"><defs
   id="defs10" /><sodipodi:namedview
   id="namedview10"
   pagecolor="#ffffff"
   bordercolor="#666666"
   borderopacity="1.0"
   inkscape:showpageshadow="2"
   inkscape:pageopacity="0.0"
   inkscape:pagecheckerboard="0"
   inkscape:deskcolor="#d1d1d1"
   inkscape:zoom="3.7274602"
   inkscape:cx="238.63434"
   inkscape:cy="75.252312"
   inkscape:window-width="2560"
   inkscape:window-height="1361"
   inkscape:window-x="1911"
   inkscape:window-y="-9"
   inkscape:window-maximized="1"
   inkscape:current-layer="svg10" />
<g
   id="Layer_1"
   transform="translate(0.00100223,4.5952866e-5)">
	<g
   id="g2">
		<g
   id="g1">
			<path
   fill="#078eff"
   d="m 146.193,25.597 c -32.88,-33.605 -86.981,-34.2 -120.594,-1.32 -33.613,32.888 -34.2,86.981 -1.32,120.594 15.935,16.282 37.248,25.387 60.027,25.634 0.316,0.008 0.64,0.008 0.957,0.008 17.246,0 33.729,-5.101 47.727,-14.607 l -4.167,-1.875 c -12.917,8.226 -27.911,12.624 -43.56,12.624 -0.309,0 -0.61,0 -0.918,-0.008 C 62.6,166.416 42.251,157.719 27.042,142.178 -4.356,110.085 -3.792,58.431 28.301,27.04 44.112,11.561 64.676,3.852 85.233,3.852 c 21.143,0 42.279,8.172 58.206,24.446 27.324,27.934 30.434,70.691 9.615,102.005 l 1.79,4.221 c 23.365,-32.966 20.587,-79.041 -8.651,-108.927 z m -4.02,117.839"
   id="path1" />
		</g>
	</g>
	<g
   id="g4">
		<g
   id="g3">
			<path
   fill="#ffffff"
   d="M 27.603,81.76"
   id="path2" />
		</g>
	</g>
	<g
   id="g5">
		
	</g>
	<g
   id="g6">
		
	</g>
	<g
   id="g7">
		
	</g>
	<g
   id="g8">
		
	</g>
	<g
   id="g9">
		
	</g>
	<g
   id="g10">
		
	</g>
</g>
<g
   id="Livello_2"
   transform="translate(0.00100223,4.5952866e-5)">
	<path
   fill="#078eff"
   d="m 163.454,158.149 c -0.927,0 -1.81,0.189 -2.613,0.53 l -9.008,-21.279 -1.728,-4.074 -2.828,-6.679 C 166.89,97.655 164.114,57.926 138.683,31.933 109.624,2.231 61.991,1.71 32.29,30.769 2.589,59.828 2.068,107.461 31.127,137.162 c 25.431,25.993 65.088,29.637 94.501,10.664 l 6.621,2.977 4.036,1.813 21.073,9.477 c -0.378,0.839 -0.594,1.766 -0.594,2.746 0,3.695 2.995,6.691 6.691,6.691 3.696,0 6.691,-2.995 6.691,-6.691 -0.002,-3.695 -2.997,-6.69 -6.692,-6.69 z M 80.412,116.78 69.037,130.342 57.657,116.78 28.27,81.76 41.623,70.556 l 27.414,32.667 49.927,-59.501 13.353,11.204 z"
   id="path10" />
</g>
</svg>
